<svg width="32" height="32" viewBox="0 0 32 32" fill="none" xmlns="http://www.w3.org/2000/svg">
<g clip-path="url(#clip0_407_4452)">
<path d="M13 0H19L16 16L19 32H13L16 16L13 0Z" fill="url(#paint0_linear_407_4452)"/>
<path d="M2.56494 6.80762L6.80758 2.56498L16 16L29.435 25.1924L25.1924 29.435L16 16L2.56494 6.80762Z" fill="url(#paint1_linear_407_4452)"/>
<path d="M0 19L-2.62268e-07 13L16 16L32 13L32 19L16 16L0 19Z" fill="url(#paint2_linear_407_4452)"/>
<path d="M6.80762 29.4351L2.56498 25.1924L16 16L25.1924 2.565L29.435 6.80764L16 16L6.80762 29.4351Z" fill="url(#paint3_linear_407_4452)"/>
</g>
<defs>
<linearGradient id="paint0_linear_407_4452" x1="16" y1="0" x2="16" y2="32" gradientUnits="userSpaceOnUse">
<stop stop-color="white" stop-opacity="0"/>
<stop offset="0.25" stop-color="white"/>
<stop offset="0.5" stop-color="white" stop-opacity="0"/>
<stop offset="0.75" stop-color="white"/>
<stop offset="1" stop-color="white" stop-opacity="0"/>
</linearGradient>
<linearGradient id="paint1_linear_407_4452" x1="4.68626" y1="4.6863" x2="27.3137" y2="27.3137" gradientUnits="userSpaceOnUse">
<stop stop-color="white" stop-opacity="0"/>
<stop offset="0.25" stop-color="white"/>
<stop offset="0.5" stop-color="white" stop-opacity="0"/>
<stop offset="0.75" stop-color="white"/>
<stop offset="1" stop-color="white" stop-opacity="0"/>
</linearGradient>
<linearGradient id="paint2_linear_407_4452" x1="-1.31134e-07" y1="16" x2="32" y2="16" gradientUnits="userSpaceOnUse">
<stop stop-color="white" stop-opacity="0"/>
<stop offset="0.25" stop-color="white"/>
<stop offset="0.5" stop-color="white" stop-opacity="0"/>
<stop offset="0.75" stop-color="white"/>
<stop offset="1" stop-color="white" stop-opacity="0"/>
</linearGradient>
<linearGradient id="paint3_linear_407_4452" x1="4.6863" y1="27.3137" x2="27.3137" y2="4.68632" gradientUnits="userSpaceOnUse">
<stop stop-color="white" stop-opacity="0"/>
<stop offset="0.25" stop-color="white"/>
<stop offset="0.5" stop-color="white" stop-opacity="0"/>
<stop offset="0.75" stop-color="white"/>
<stop offset="1" stop-color="white" stop-opacity="0"/>
</linearGradient>
<clipPath id="clip0_407_4452">
<rect width="32" height="32" fill="white"/>
</clipPath>
</defs>
</svg>
